<svg width="84" height="70" viewBox="0 0 84 70" fill="none" xmlns="http://www.w3.org/2000/svg">
<g clip-path="url(#clip0_23_5634)">
<path d="M42 63.714C25.6725 63.714 12.3865 50.4315 12.3865 34.1005C12.3865 17.7695 25.6725 4.49048 42 4.49048C58.3275 4.49048 71.6135 17.7765 71.6135 34.104C71.6135 50.4315 58.331 63.7175 42 63.7175V63.714ZM42 5.53698C26.25 5.53698 13.4365 18.3505 13.4365 34.1005C13.4365 49.8505 26.25 62.664 42 62.664C57.75 62.664 70.5635 49.8505 70.5635 34.1005C70.5635 18.3505 57.75 5.54048 42 5.54048V5.53698Z" fill="white"/>
<path d="M42.0001 62.664C57.7753 62.664 70.5636 49.8757 70.5636 34.1005C70.5636 18.3253 57.7753 5.53699 42.0001 5.53699C26.2249 5.53699 13.4366 18.3253 13.4366 34.1005C13.4366 49.8757 26.2249 62.664 42.0001 62.664Z" fill="#257157"/>
<path fill-rule="evenodd" clip-rule="evenodd" d="M74.9104 30.2015C74.6584 28.105 75.5789 23.7265 74.8299 21.749C74.0809 19.7715 70.4864 17.108 69.2859 15.365C68.0854 13.6255 66.8674 9.32053 65.2854 7.91703C63.7034 6.51353 59.2829 5.82403 57.4104 4.84053C55.5379 3.85703 52.4579 0.612529 50.4069 0.105029C48.3559 -0.402471 44.1174 1.04303 42.0034 1.04303C39.8894 1.04303 35.6509 -0.398971 33.5964 0.108529C31.5454 0.616029 28.4654 3.86053 26.5929 4.84403C24.7204 5.82753 20.2964 6.51703 18.7179 7.92053C17.1359 9.32403 15.9179 13.629 14.7174 15.3685C13.5169 17.108 9.92239 19.775 9.17339 21.7525C8.42439 23.73 9.34839 28.1085 9.09289 30.205C8.83739 32.305 6.89489 36.337 7.14689 38.4335C7.40239 40.5335 10.2549 43.981 11.0039 45.9585C11.7529 47.936 11.9069 52.409 13.1074 54.1485C14.3079 55.888 18.4344 57.617 20.0199 59.017C21.6019 60.417 23.8174 64.309 25.6864 65.2925C27.5589 66.276 32.0179 65.8875 34.0689 66.3915C36.1199 66.8955 39.8894 69.314 41.9999 69.314C44.1104 69.314 47.8834 66.899 49.9344 66.3915C51.9854 65.8875 56.4479 66.2725 58.3169 65.2925C60.1894 64.309 62.4014 60.4205 63.9834 59.017C65.5654 57.617 69.6954 55.888 70.8959 54.1485C72.0964 52.409 72.2504 47.936 72.9994 45.9585C73.7484 43.9845 76.6009 40.5335 76.8564 38.4335C77.1119 36.3335 75.1659 32.3015 74.9104 30.205V30.2015ZM41.9999 63.714C25.6724 63.714 12.3864 50.4315 12.3864 34.1005C12.3864 17.7695 25.6724 4.49053 41.9999 4.49053C58.3274 4.49053 71.6134 17.7765 71.6134 34.104C71.6134 50.4315 58.3309 63.7175 41.9999 63.7175V63.714Z" fill="#6AB29C"/>
<path fill-rule="evenodd" clip-rule="evenodd" d="M84 44.1035H0L3.85 34.7725L0 25.2035H84L79.45 34.7725L84 44.1035Z" fill="#E5D5C6"/>
<path fill-rule="evenodd" clip-rule="evenodd" d="M82.5999 44.1035H1.3999L5.2499 34.7725L1.3999 25.2035H82.5999L78.0499 34.7725L82.5999 44.1035Z" fill="#134D3B"/>
<path d="M42.7114 52.85V48.335H41.7104V47.635H43.5304V52.85H42.7114Z" fill="#F2C94C"/>
<path fill-rule="evenodd" clip-rule="evenodd" d="M52 13L52.7137 15.2842L55 15.2934L53.1542 16.7112L53.8546 19L52 17.5961L50.1454 19L50.8458 16.7112L49 15.2934L51.2863 15.2842L52 13Z" fill="#F2C94C"/>
<path fill-rule="evenodd" clip-rule="evenodd" d="M42 9L42.9511 12.0421L46 12.0561L43.5422 13.9486L44.4711 17L42 15.1262L39.5289 17L40.4578 13.9486L38 12.0561L41.0489 12.0421L42 9Z" fill="#F2C94C"/>
<path d="M7.48898 34.728C7.48898 33.9653 7.65398 33.287 7.98398 32.693C8.31398 32.0916 8.77231 31.626 9.35898 31.296C9.95298 30.9586 10.624 30.79 11.372 30.79C12.2886 30.79 13.0733 31.032 13.726 31.516C14.3786 32 14.815 32.66 15.035 33.496H12.967C12.813 33.1733 12.593 32.9276 12.307 32.759C12.0283 32.5903 11.7093 32.506 11.35 32.506C10.7706 32.506 10.3013 32.7076 9.94198 33.111C9.58264 33.5143 9.40298 34.0533 9.40298 34.728C9.40298 35.4026 9.58264 35.9416 9.94198 36.345C10.3013 36.7483 10.7706 36.95 11.35 36.95C11.7093 36.95 12.0283 36.8656 12.307 36.697C12.593 36.5283 12.813 36.2826 12.967 35.96H15.035C14.815 36.796 14.3786 37.456 13.726 37.94C13.0733 38.4166 12.2886 38.655 11.372 38.655C10.624 38.655 9.95298 38.49 9.35898 38.16C8.77231 37.8226 8.31398 37.357 7.98398 36.763C7.65398 36.169 7.48898 35.4906 7.48898 34.728ZM22.8749 30.878V38.6H20.9939V35.421H18.0679V38.6H16.1869V30.878H18.0679V33.903H20.9939V30.878H22.8749ZM29.0398 37.236H26.1578L25.6958 38.6H23.7268L26.5208 30.878H28.6988L31.4928 38.6H29.5018L29.0398 37.236ZM28.5558 35.784L27.5988 32.957L26.6528 35.784H28.5558ZM34.2241 37.148H36.6881V38.6H32.3431V30.878H34.2241V37.148ZM39.4663 37.148H41.9303V38.6H37.5853V30.878H39.4663V37.148ZM44.7085 32.385V33.947H47.2275V35.399H44.7085V37.093H47.5575V38.6H42.8275V30.878H47.5575V32.385H44.7085ZM55.6867 38.6H53.8057L50.6597 33.837V38.6H48.7787V30.878H50.6597L53.8057 35.663V30.878H55.6867V38.6ZM62.1762 33.32C62.0368 33.0633 61.8352 32.869 61.5712 32.737C61.3145 32.5976 61.0102 32.528 60.6582 32.528C60.0495 32.528 59.5618 32.7296 59.1952 33.133C58.8285 33.529 58.6452 34.0606 58.6452 34.728C58.6452 35.4393 58.8358 35.9966 59.2172 36.4C59.6058 36.796 60.1375 36.994 60.8122 36.994C61.2742 36.994 61.6628 36.8766 61.9782 36.642C62.3008 36.4073 62.5355 36.07 62.6822 35.63H60.2952V34.244H64.3872V35.993C64.2478 36.4623 64.0095 36.8986 63.6722 37.302C63.3422 37.7053 62.9205 38.0316 62.4072 38.281C61.8938 38.5303 61.3145 38.655 60.6692 38.655C59.9065 38.655 59.2245 38.49 58.6232 38.16C58.0292 37.8226 57.5635 37.357 57.2262 36.763C56.8962 36.169 56.7312 35.4906 56.7312 34.728C56.7312 33.9653 56.8962 33.287 57.2262 32.693C57.5635 32.0916 58.0292 31.626 58.6232 31.296C59.2172 30.9586 59.8955 30.79 60.6582 30.79C61.5822 30.79 62.3595 31.0136 62.9902 31.461C63.6282 31.9083 64.0498 32.528 64.2552 33.32H62.1762ZM67.3101 32.385V33.947H69.8291V35.399H67.3101V37.093H70.1591V38.6H65.4291V30.878H70.1591V32.385H67.3101ZM75.3182 38.6L73.7122 35.685H73.2612V38.6H71.3802V30.878H74.5372C75.1459 30.878 75.6629 30.9843 76.0882 31.197C76.5209 31.4096 76.8436 31.703 77.0562 32.077C77.2689 32.4436 77.3752 32.8543 77.3752 33.309C77.3752 33.8223 77.2286 34.2806 76.9352 34.684C76.6492 35.0873 76.2239 35.3733 75.6592 35.542L77.4412 38.6H75.3182ZM73.2612 34.354H74.4272C74.7719 34.354 75.0286 34.2696 75.1972 34.101C75.3732 33.9323 75.4612 33.694 75.4612 33.386C75.4612 33.0926 75.3732 32.8616 75.1972 32.693C75.0286 32.5243 74.7719 32.44 74.4272 32.44H73.2612V34.354Z" fill="white"/>
</g>
<defs>
<clipPath id="clip0_23_5634">
<rect width="84" height="69.3105" fill="white"/>
</clipPath>
</defs>
</svg>
