<svg width="84" height="70" viewBox="0 0 84 70" fill="none" xmlns="http://www.w3.org/2000/svg">
<g clip-path="url(#clip0_23_2322)">
<path d="M42 63.714C25.6725 63.714 12.3865 50.4315 12.3865 34.1005C12.3865 17.7695 25.6725 4.49048 42 4.49048C58.3275 4.49048 71.6135 17.7765 71.6135 34.104C71.6135 50.4315 58.331 63.7175 42 63.7175V63.714ZM42 5.53698C26.25 5.53698 13.4365 18.3505 13.4365 34.1005C13.4365 49.8505 26.25 62.664 42 62.664C57.75 62.664 70.5635 49.8505 70.5635 34.1005C70.5635 18.3505 57.75 5.54048 42 5.54048V5.53698Z" fill="white"/>
<path d="M42.0001 62.664C57.7753 62.664 70.5636 49.8757 70.5636 34.1005C70.5636 18.3253 57.7753 5.53699 42.0001 5.53699C26.2249 5.53699 13.4366 18.3253 13.4366 34.1005C13.4366 49.8757 26.2249 62.664 42.0001 62.664Z" fill="#257157"/>
<path fill-rule="evenodd" clip-rule="evenodd" d="M74.9104 30.2015C74.6584 28.105 75.5789 23.7265 74.8299 21.749C74.0809 19.7715 70.4864 17.108 69.2859 15.365C68.0854 13.6255 66.8674 9.32053 65.2854 7.91703C63.7034 6.51353 59.2829 5.82403 57.4104 4.84053C55.5379 3.85703 52.4579 0.612529 50.4069 0.105029C48.3559 -0.402471 44.1174 1.04303 42.0034 1.04303C39.8894 1.04303 35.6509 -0.398971 33.5964 0.108529C31.5454 0.616029 28.4654 3.86053 26.5929 4.84403C24.7204 5.82753 20.2964 6.51703 18.7179 7.92053C17.1359 9.32403 15.9179 13.629 14.7174 15.3685C13.5169 17.108 9.92239 19.775 9.17339 21.7525C8.42439 23.73 9.34839 28.1085 9.09289 30.205C8.83739 32.305 6.89489 36.337 7.14689 38.4335C7.40239 40.5335 10.2549 43.981 11.0039 45.9585C11.7529 47.936 11.9069 52.409 13.1074 54.1485C14.3079 55.888 18.4344 57.617 20.0199 59.017C21.6019 60.417 23.8174 64.309 25.6864 65.2925C27.5589 66.276 32.0179 65.8875 34.0689 66.3915C36.1199 66.8955 39.8894 69.314 41.9999 69.314C44.1104 69.314 47.8834 66.899 49.9344 66.3915C51.9854 65.8875 56.4479 66.2725 58.3169 65.2925C60.1894 64.309 62.4014 60.4205 63.9834 59.017C65.5654 57.617 69.6954 55.888 70.8959 54.1485C72.0964 52.409 72.2504 47.936 72.9994 45.9585C73.7484 43.9845 76.6009 40.5335 76.8564 38.4335C77.1119 36.3335 75.1659 32.3015 74.9104 30.205V30.2015ZM41.9999 63.714C25.6724 63.714 12.3864 50.4315 12.3864 34.1005C12.3864 17.7695 25.6724 4.49053 41.9999 4.49053C58.3274 4.49053 71.6134 17.7765 71.6134 34.104C71.6134 50.4315 58.3309 63.7175 41.9999 63.7175V63.714Z" fill="#6AB29C"/>
<path fill-rule="evenodd" clip-rule="evenodd" d="M84 44.1035H0L3.85 34.7725L0 25.2035H84L79.45 34.7725L84 44.1035Z" fill="#E5D5C6"/>
<path fill-rule="evenodd" clip-rule="evenodd" d="M82.5999 44.1035H1.3999L5.2499 34.7725L1.3999 25.2035H82.5999L78.0499 34.7725L82.5999 44.1035Z" fill="#134D3B"/>
<path d="M42.7613 52.934C42.4813 52.934 42.2176 52.8827 41.9703 52.78C41.7276 52.6774 41.5176 52.5327 41.3403 52.346C41.1676 52.1594 41.044 51.94 40.9693 51.688L41.6693 51.422C41.7626 51.6694 41.905 51.8607 42.0963 51.996C42.2876 52.1314 42.5093 52.199 42.7613 52.199C42.9666 52.199 43.144 52.1594 43.2933 52.08C43.4473 52.0007 43.5663 51.8887 43.6503 51.744C43.739 51.5994 43.7833 51.4244 43.7833 51.219C43.7833 51.0184 43.739 50.8457 43.6503 50.701C43.5663 50.5564 43.4473 50.4467 43.2933 50.372C43.144 50.2974 42.9666 50.26 42.7613 50.26C42.6773 50.26 42.591 50.267 42.5023 50.281C42.4183 50.295 42.3436 50.3137 42.2783 50.337L42.0963 49.952L43.4683 48.335H41.2493V47.635H44.3923V48.3L43.0483 49.91L43.0273 49.644C43.34 49.6487 43.6153 49.7187 43.8533 49.854C44.0913 49.9847 44.2756 50.1667 44.4063 50.4C44.5416 50.6287 44.6093 50.8947 44.6093 51.198C44.6093 51.5247 44.53 51.821 44.3713 52.087C44.2126 52.3484 43.9933 52.556 43.7133 52.71C43.438 52.8594 43.1206 52.934 42.7613 52.934Z" fill="#F2C94C"/>
<path fill-rule="evenodd" clip-rule="evenodd" d="M33 13L33.7137 15.2842L36 15.2934L34.1542 16.7112L34.8546 19L33 17.5961L31.1454 19L31.8458 16.7112L30 15.2934L32.2863 15.2842L33 13Z" fill="#F2C94C"/>
<path fill-rule="evenodd" clip-rule="evenodd" d="M52 13L52.7137 15.2842L55 15.2934L53.1542 16.7112L53.8546 19L52 17.5961L50.1454 19L50.8458 16.7112L49 15.2934L51.2863 15.2842L52 13Z" fill="#F2C94C"/>
<path fill-rule="evenodd" clip-rule="evenodd" d="M25.3835 17L25.9505 18.7255L27.767 18.7325L26.3005 19.8035L26.857 21.5325L25.3835 20.472L23.91 21.5325L24.4665 19.8035L23 18.7325L24.8165 18.7255L25.3835 17Z" fill="#F2C94C"/>
<path fill-rule="evenodd" clip-rule="evenodd" d="M42 9L42.9511 12.0421L46 12.0561L43.5422 13.9486L44.4711 17L42 15.1262L39.5289 17L40.4578 13.9486L38 12.0561L41.0489 12.0421L42 9Z" fill="#F2C94C"/>
<path d="M11.5329 34.728C11.5329 33.9653 11.6979 33.287 12.0279 32.693C12.3579 32.0916 12.8163 31.626 13.4029 31.296C13.9969 30.9586 14.6679 30.79 15.4159 30.79C16.3326 30.79 17.1173 31.032 17.7699 31.516C18.4226 32 18.8589 32.66 19.0789 33.496H17.0109C16.8569 33.1733 16.6369 32.9276 16.3509 32.759C16.0723 32.5903 15.7533 32.506 15.3939 32.506C14.8146 32.506 14.3453 32.7076 13.9859 33.111C13.6266 33.5143 13.4469 34.0533 13.4469 34.728C13.4469 35.4026 13.6266 35.9416 13.9859 36.345C14.3453 36.7483 14.8146 36.95 15.3939 36.95C15.7533 36.95 16.0723 36.8656 16.3509 36.697C16.6369 36.5283 16.8569 36.2826 17.0109 35.96H19.0789C18.8589 36.796 18.4226 37.456 17.7699 37.94C17.1173 38.4166 16.3326 38.655 15.4159 38.655C14.6679 38.655 13.9969 38.49 13.4029 38.16C12.8163 37.8226 12.3579 37.357 12.0279 36.763C11.6979 36.169 11.5329 35.4906 11.5329 34.728ZM26.9188 30.878V38.6H25.0378V35.421H22.1118V38.6H20.2308V30.878H22.1118V33.903H25.0378V30.878H26.9188ZM33.0837 37.236H30.2017L29.7397 38.6H27.7707L30.5647 30.878H32.7427L35.5367 38.6H33.5457L33.0837 37.236ZM32.5997 35.784L31.6427 32.957L30.6967 35.784H32.5997ZM45.1321 30.878V38.6H43.2511V33.969L41.5241 38.6H40.0061L38.2681 33.958V38.6H36.3871V30.878H38.6091L40.7761 36.224L42.9211 30.878H45.1321ZM52.3697 33.364C52.3697 33.8113 52.2671 34.222 52.0617 34.596C51.8564 34.9626 51.5411 35.2596 51.1157 35.487C50.6904 35.7143 50.1624 35.828 49.5317 35.828H48.3657V38.6H46.4847V30.878H49.5317C50.1477 30.878 50.6684 30.9843 51.0937 31.197C51.5191 31.4096 51.8381 31.703 52.0507 32.077C52.2634 32.451 52.3697 32.88 52.3697 33.364ZM49.3887 34.332C49.7481 34.332 50.0157 34.2476 50.1917 34.079C50.3677 33.9103 50.4557 33.672 50.4557 33.364C50.4557 33.056 50.3677 32.8176 50.1917 32.649C50.0157 32.4803 49.7481 32.396 49.3887 32.396H48.3657V34.332H49.3887ZM55.23 30.878V38.6H53.349V30.878H55.23ZM60.2451 38.677C59.5191 38.677 58.8518 38.5083 58.2431 38.171C57.6418 37.8336 57.1615 37.3643 56.8021 36.763C56.4501 36.1543 56.2741 35.4723 56.2741 34.717C56.2741 33.9616 56.4501 33.2833 56.8021 32.682C57.1615 32.0806 57.6418 31.6113 58.2431 31.274C58.8518 30.9366 59.5191 30.768 60.2451 30.768C60.9711 30.768 61.6348 30.9366 62.2361 31.274C62.8448 31.6113 63.3215 32.0806 63.6661 32.682C64.0181 33.2833 64.1941 33.9616 64.1941 34.717C64.1941 35.4723 64.0181 36.1543 63.6661 36.763C63.3141 37.3643 62.8375 37.8336 62.2361 38.171C61.6348 38.5083 60.9711 38.677 60.2451 38.677ZM60.2451 36.961C60.8611 36.961 61.3525 36.7556 61.7191 36.345C62.0931 35.9343 62.2801 35.3916 62.2801 34.717C62.2801 34.035 62.0931 33.4923 61.7191 33.089C61.3525 32.6783 60.8611 32.473 60.2451 32.473C59.6218 32.473 59.1231 32.6746 58.7491 33.078C58.3825 33.4813 58.1991 34.0276 58.1991 34.717C58.1991 35.399 58.3825 35.9453 58.7491 36.356C59.1231 36.7593 59.6218 36.961 60.2451 36.961ZM72.1486 38.6H70.2676L67.1216 33.837V38.6H65.2406V30.878H67.1216L70.2676 35.663V30.878H72.1486V38.6Z" fill="white"/>
</g>
<defs>
<clipPath id="clip0_23_2322">
<rect width="84" height="69.3105" fill="white"/>
</clipPath>
</defs>
</svg>
