<svg width="84" height="70" viewBox="0 0 84 70" fill="none" xmlns="http://www.w3.org/2000/svg">
<g clip-path="url(#clip0_23_5472)">
<path d="M42 63.714C25.6725 63.714 12.3865 50.4315 12.3865 34.1005C12.3865 17.7695 25.6725 4.49048 42 4.49048C58.3275 4.49048 71.6135 17.7765 71.6135 34.104C71.6135 50.4315 58.331 63.7175 42 63.7175V63.714ZM42 5.53698C26.25 5.53698 13.4365 18.3505 13.4365 34.1005C13.4365 49.8505 26.25 62.664 42 62.664C57.75 62.664 70.5635 49.8505 70.5635 34.1005C70.5635 18.3505 57.75 5.54048 42 5.54048V5.53698Z" fill="white"/>
<path d="M42.0001 62.664C57.7753 62.664 70.5636 49.8757 70.5636 34.1005C70.5636 18.3253 57.7753 5.53699 42.0001 5.53699C26.2249 5.53699 13.4366 18.3253 13.4366 34.1005C13.4366 49.8757 26.2249 62.664 42.0001 62.664Z" fill="#257157"/>
<path fill-rule="evenodd" clip-rule="evenodd" d="M74.9104 30.2015C74.6584 28.105 75.5789 23.7265 74.8299 21.749C74.0809 19.7715 70.4864 17.108 69.2859 15.365C68.0854 13.6255 66.8674 9.32053 65.2854 7.91703C63.7034 6.51353 59.2829 5.82403 57.4104 4.84053C55.5379 3.85703 52.4579 0.612529 50.4069 0.105029C48.3559 -0.402471 44.1174 1.04303 42.0034 1.04303C39.8894 1.04303 35.6509 -0.398971 33.5964 0.108529C31.5454 0.616029 28.4654 3.86053 26.5929 4.84403C24.7204 5.82753 20.2964 6.51703 18.7179 7.92053C17.1359 9.32403 15.9179 13.629 14.7174 15.3685C13.5169 17.108 9.92239 19.775 9.17339 21.7525C8.42439 23.73 9.34839 28.1085 9.09289 30.205C8.83739 32.305 6.89489 36.337 7.14689 38.4335C7.40239 40.5335 10.2549 43.981 11.0039 45.9585C11.7529 47.936 11.9069 52.409 13.1074 54.1485C14.3079 55.888 18.4344 57.617 20.0199 59.017C21.6019 60.417 23.8174 64.309 25.6864 65.2925C27.5589 66.276 32.0179 65.8875 34.0689 66.3915C36.1199 66.8955 39.8894 69.314 41.9999 69.314C44.1104 69.314 47.8834 66.899 49.9344 66.3915C51.9854 65.8875 56.4479 66.2725 58.3169 65.2925C60.1894 64.309 62.4014 60.4205 63.9834 59.017C65.5654 57.617 69.6954 55.888 70.8959 54.1485C72.0964 52.409 72.2504 47.936 72.9994 45.9585C73.7484 43.9845 76.6009 40.5335 76.8564 38.4335C77.1119 36.3335 75.1659 32.3015 74.9104 30.205V30.2015ZM41.9999 63.714C25.6724 63.714 12.3864 50.4315 12.3864 34.1005C12.3864 17.7695 25.6724 4.49053 41.9999 4.49053C58.3274 4.49053 71.6134 17.7765 71.6134 34.104C71.6134 50.4315 58.3309 63.7175 41.9999 63.7175V63.714Z" fill="#6AB29C"/>
<path fill-rule="evenodd" clip-rule="evenodd" d="M84 44.1035H0L3.85 34.7725L0 25.2035H84L79.45 34.7725L84 44.1035Z" fill="#E5D5C6"/>
<path fill-rule="evenodd" clip-rule="evenodd" d="M82.5999 44.1035H1.3999L5.2499 34.7725L1.3999 25.2035H82.5999L78.0499 34.7725L82.5999 44.1035Z" fill="#134D3B"/>
<path d="M41.1082 52.85V52.255L42.5362 50.729C42.8162 50.4304 43.0355 50.19 43.1942 50.008C43.3575 49.8214 43.4742 49.658 43.5442 49.518C43.6188 49.378 43.6562 49.231 43.6562 49.077C43.6562 48.825 43.5792 48.6314 43.4252 48.496C43.2712 48.356 43.0728 48.286 42.8302 48.286C42.5782 48.286 42.3612 48.3584 42.1792 48.503C41.9972 48.643 41.8712 48.8484 41.8012 49.119L41.0732 48.909C41.1292 48.6337 41.2412 48.3957 41.4092 48.195C41.5772 47.9897 41.7825 47.831 42.0252 47.719C42.2725 47.607 42.5385 47.551 42.8232 47.551C43.1545 47.551 43.4438 47.614 43.6912 47.74C43.9385 47.8614 44.1298 48.0317 44.2652 48.251C44.4052 48.4704 44.4752 48.7247 44.4752 49.014C44.4752 49.2054 44.4378 49.392 44.3632 49.574C44.2932 49.7514 44.1835 49.9404 44.0342 50.141C43.8848 50.337 43.6935 50.5587 43.4602 50.806L42.2002 52.15H44.5732V52.85H41.1082Z" fill="#F2C94C"/>
<path fill-rule="evenodd" clip-rule="evenodd" d="M33 13L33.7137 15.2842L36 15.2934L34.1542 16.7112L34.8546 19L33 17.5961L31.1454 19L31.8458 16.7112L30 15.2934L32.2863 15.2842L33 13Z" fill="#F2C94C"/>
<path fill-rule="evenodd" clip-rule="evenodd" d="M52 13L52.7137 15.2842L55 15.2934L53.1542 16.7112L53.8546 19L52 17.5961L50.1454 19L50.8458 16.7112L49 15.2934L51.2863 15.2842L52 13Z" fill="#F2C94C"/>
<path fill-rule="evenodd" clip-rule="evenodd" d="M42 9L42.9511 12.0421L46 12.0561L43.5422 13.9486L44.4711 17L42 15.1262L39.5289 17L40.4578 13.9486L38 12.0561L41.0489 12.0421L42 9Z" fill="#F2C94C"/>
<path d="M31.6192 32.385V33.947H34.1382V35.399H31.6192V37.093H34.4682V38.6H29.7382V30.878H34.4682V32.385H31.6192ZM37.5703 37.148H40.0343V38.6H35.6893V30.878H37.5703V37.148ZM42.8125 30.878V38.6H40.9315V30.878H42.8125ZM49.7307 30.878V32.385H47.6847V38.6H45.8037V32.385H43.7577V30.878H49.7307ZM52.5557 32.385V33.947H55.0747V35.399H52.5557V37.093H55.4047V38.6H50.6747V30.878H55.4047V32.385H52.5557Z" fill="white"/>
</g>
<defs>
<clipPath id="clip0_23_5472">
<rect width="84" height="69.3105" fill="white"/>
</clipPath>
</defs>
</svg>
