<svg width="84" height="70" viewBox="0 0 84 70" fill="none" xmlns="http://www.w3.org/2000/svg">
<g clip-path="url(#clip0_23_5468)">
<path d="M42 63.714C25.6725 63.714 12.3865 50.4315 12.3865 34.1005C12.3865 17.7695 25.6725 4.49048 42 4.49048C58.3275 4.49048 71.6135 17.7765 71.6135 34.104C71.6135 50.4315 58.331 63.7175 42 63.7175V63.714ZM42 5.53698C26.25 5.53698 13.4365 18.3505 13.4365 34.1005C13.4365 49.8505 26.25 62.664 42 62.664C57.75 62.664 70.5635 49.8505 70.5635 34.1005C70.5635 18.3505 57.75 5.54048 42 5.54048V5.53698Z" fill="white"/>
<path d="M42.0001 62.664C57.7753 62.664 70.5636 49.8757 70.5636 34.1005C70.5636 18.3253 57.7753 5.53699 42.0001 5.53699C26.2249 5.53699 13.4366 18.3253 13.4366 34.1005C13.4366 49.8757 26.2249 62.664 42.0001 62.664Z" fill="#257157"/>
<path fill-rule="evenodd" clip-rule="evenodd" d="M74.9104 30.2015C74.6584 28.105 75.5789 23.7265 74.8299 21.749C74.0809 19.7715 70.4864 17.108 69.2859 15.365C68.0854 13.6255 66.8674 9.32053 65.2854 7.91703C63.7034 6.51353 59.2829 5.82403 57.4104 4.84053C55.5379 3.85703 52.4579 0.612529 50.4069 0.105029C48.3559 -0.402471 44.1174 1.04303 42.0034 1.04303C39.8894 1.04303 35.6509 -0.398971 33.5964 0.108529C31.5454 0.616029 28.4654 3.86053 26.5929 4.84403C24.7204 5.82753 20.2964 6.51703 18.7179 7.92053C17.1359 9.32403 15.9179 13.629 14.7174 15.3685C13.5169 17.108 9.92239 19.775 9.17339 21.7525C8.42439 23.73 9.34839 28.1085 9.09289 30.205C8.83739 32.305 6.89489 36.337 7.14689 38.4335C7.40239 40.5335 10.2549 43.981 11.0039 45.9585C11.7529 47.936 11.9069 52.409 13.1074 54.1485C14.3079 55.888 18.4344 57.617 20.0199 59.017C21.6019 60.417 23.8174 64.309 25.6864 65.2925C27.5589 66.276 32.0179 65.8875 34.0689 66.3915C36.1199 66.8955 39.8894 69.314 41.9999 69.314C44.1104 69.314 47.8834 66.899 49.9344 66.3915C51.9854 65.8875 56.4479 66.2725 58.3169 65.2925C60.1894 64.309 62.4014 60.4205 63.9834 59.017C65.5654 57.617 69.6954 55.888 70.8959 54.1485C72.0964 52.409 72.2504 47.936 72.9994 45.9585C73.7484 43.9845 76.6009 40.5335 76.8564 38.4335C77.1119 36.3335 75.1659 32.3015 74.9104 30.205V30.2015ZM41.9999 63.714C25.6724 63.714 12.3864 50.4315 12.3864 34.1005C12.3864 17.7695 25.6724 4.49053 41.9999 4.49053C58.3274 4.49053 71.6134 17.7765 71.6134 34.104C71.6134 50.4315 58.3309 63.7175 41.9999 63.7175V63.714Z" fill="#6AB29C"/>
<path fill-rule="evenodd" clip-rule="evenodd" d="M84 44.1035H0L3.85 34.7725L0 25.2035H84L79.45 34.7725L84 44.1035Z" fill="#E5D5C6"/>
<path fill-rule="evenodd" clip-rule="evenodd" d="M82.5999 44.1035H1.3999L5.2499 34.7725L1.3999 25.2035H82.5999L78.0499 34.7725L82.5999 44.1035Z" fill="#134D3B"/>
<path d="M41.1081 52.85V52.255L42.5361 50.729C42.8161 50.4304 43.0355 50.19 43.1941 50.008C43.3575 49.8214 43.4741 49.658 43.5441 49.518C43.6188 49.378 43.6561 49.231 43.6561 49.077C43.6561 48.825 43.5791 48.6314 43.4251 48.496C43.2711 48.356 43.0728 48.286 42.8301 48.286C42.5781 48.286 42.3611 48.3584 42.1791 48.503C41.9971 48.643 41.8711 48.8484 41.8011 49.119L41.0731 48.909C41.1291 48.6337 41.2411 48.3957 41.4091 48.195C41.5771 47.9897 41.7825 47.831 42.0251 47.719C42.2725 47.607 42.5385 47.551 42.8231 47.551C43.1545 47.551 43.4438 47.614 43.6911 47.74C43.9385 47.8614 44.1298 48.0317 44.2651 48.251C44.4051 48.4704 44.4751 48.7247 44.4751 49.014C44.4751 49.2054 44.4378 49.392 44.3631 49.574C44.2931 49.7514 44.1835 49.9404 44.0341 50.141C43.8848 50.337 43.6935 50.5587 43.4601 50.806L42.2001 52.15H44.5731V52.85H41.1081Z" fill="#F2C94C"/>
<path fill-rule="evenodd" clip-rule="evenodd" d="M33 13L33.7137 15.2842L36 15.2934L34.1542 16.7112L34.8546 19L33 17.5961L31.1454 19L31.8458 16.7112L30 15.2934L32.2863 15.2842L33 13Z" fill="#F2C94C"/>
<path fill-rule="evenodd" clip-rule="evenodd" d="M52 13L52.7137 15.2842L55 15.2934L53.1542 16.7112L53.8546 19L52 17.5961L50.1454 19L50.8458 16.7112L49 15.2934L51.2863 15.2842L52 13Z" fill="#F2C94C"/>
<path fill-rule="evenodd" clip-rule="evenodd" d="M25.3835 17L25.9505 18.7255L27.767 18.7325L26.3005 19.8035L26.857 21.5325L25.3835 20.472L23.91 21.5325L24.4665 19.8035L23 18.7325L24.8165 18.7255L25.3835 17Z" fill="#F2C94C"/>
<path fill-rule="evenodd" clip-rule="evenodd" d="M59.3835 17L59.9505 18.7255L61.767 18.7325L60.3005 19.8035L60.857 21.5325L59.3835 20.472L57.91 21.5325L58.4665 19.8035L57 18.7325L58.8165 18.7255L59.3835 17Z" fill="#F2C94C"/>
<path fill-rule="evenodd" clip-rule="evenodd" d="M42 9L42.9511 12.0421L46 12.0561L43.5422 13.9486L44.4711 17L42 15.1262L39.5289 17L40.4578 13.9486L38 12.0561L41.0489 12.0421L42 9Z" fill="#F2C94C"/>
<path d="M23.6694 37.148H26.1334V38.6H21.7884V30.878H23.6694V37.148ZM28.9116 32.385V33.947H31.4306V35.399H28.9116V37.093H31.7606V38.6H27.0306V30.878H31.7606V32.385H28.9116ZM38.1078 33.32C37.9685 33.0633 37.7668 32.869 37.5028 32.737C37.2461 32.5976 36.9418 32.528 36.5898 32.528C35.9811 32.528 35.4935 32.7296 35.1268 33.133C34.7601 33.529 34.5768 34.0606 34.5768 34.728C34.5768 35.4393 34.7675 35.9966 35.1488 36.4C35.5375 36.796 36.0691 36.994 36.7438 36.994C37.2058 36.994 37.5945 36.8766 37.9098 36.642C38.2325 36.4073 38.4671 36.07 38.6138 35.63H36.2268V34.244H40.3188V35.993C40.1795 36.4623 39.9411 36.8986 39.6038 37.302C39.2738 37.7053 38.8521 38.0316 38.3388 38.281C37.8255 38.5303 37.2461 38.655 36.6008 38.655C35.8381 38.655 35.1561 38.49 34.5548 38.16C33.9608 37.8226 33.4951 37.357 33.1578 36.763C32.8278 36.169 32.6628 35.4906 32.6628 34.728C32.6628 33.9653 32.8278 33.287 33.1578 32.693C33.4951 32.0916 33.9608 31.626 34.5548 31.296C35.1488 30.9586 35.8271 30.79 36.5898 30.79C37.5138 30.79 38.2911 31.0136 38.9218 31.461C39.5598 31.9083 39.9815 32.528 40.1868 33.32H38.1078ZM43.2417 32.385V33.947H45.7607V35.399H43.2417V37.093H46.0907V38.6H41.3607V30.878H46.0907V32.385H43.2417ZM54.2199 38.6H52.3389L49.1929 33.837V38.6H47.3119V30.878H49.1929L52.3389 35.663V30.878H54.2199V38.6ZM58.4764 30.878C59.2904 30.878 60.0017 31.0393 60.6104 31.362C61.219 31.6846 61.6884 32.1393 62.0184 32.726C62.3557 33.3053 62.5244 33.9763 62.5244 34.739C62.5244 35.4943 62.3557 36.1653 62.0184 36.752C61.6884 37.3386 61.2154 37.7933 60.5994 38.116C59.9907 38.4386 59.283 38.6 58.4764 38.6H55.5834V30.878H58.4764ZM58.3554 36.972C59.0667 36.972 59.6204 36.7776 60.0164 36.389C60.4124 36.0003 60.6104 35.4503 60.6104 34.739C60.6104 34.0276 60.4124 33.474 60.0164 33.078C59.6204 32.682 59.0667 32.484 58.3554 32.484H57.4644V36.972H58.3554Z" fill="white"/>
</g>
<defs>
<clipPath id="clip0_23_5468">
<rect width="84" height="69.3105" fill="white"/>
</clipPath>
</defs>
</svg>
